<?xml version="1.0" standalone="no"?>
<!DOCTYPE svg PUBLIC "-//W3C//DTD SVG 20010904//EN"
 "http://www.w3.org/TR/2001/REC-SVG-20010904/DTD/svg10.dtd">
<svg version="1.0" xmlns="http://www.w3.org/2000/svg"
 width="40.000000pt" height="40.000000pt" viewBox="0 0 40.000000 40.000000"
 preserveAspectRatio="xMidYMid meet">

<g transform="translate(0.000000,40.000000) scale(0.100000,-0.100000)"
fill="#000000" stroke="none">
<path d="M22 384 c-21 -15 -22 -21 -22 -178 0 -196 0 -196 103 -196 l67 0 0
70 c0 63 -2 70 -20 70 -16 0 -20 7 -20 30 0 23 4 30 20 30 16 0 20 7 20 34 0
19 9 45 21 60 17 22 28 26 70 26 l49 0 0 -35 c0 -33 -2 -35 -36 -35 -31 0 -35
-3 -32 -22 2 -18 11 -24 36 -26 29 -3 33 -6 28 -25 -3 -12 -6 -25 -6 -29 0 -5
-13 -8 -30 -8 l-30 0 0 -70 0 -70 58 0 c90 0 92 4 92 197 0 142 -2 162 -18
176 -27 24 -316 25 -350 1z"/>
</g>
</svg>
