<?xml version="1.0" standalone="no"?>
<!DOCTYPE svg PUBLIC "-//W3C//DTD SVG 20010904//EN"
 "http://www.w3.org/TR/2001/REC-SVG-20010904/DTD/svg10.dtd">
<svg version="1.0" xmlns="http://www.w3.org/2000/svg"
 width="40.000000pt" height="40.000000pt" viewBox="0 0 40.000000 40.000000"
 preserveAspectRatio="xMidYMid meet">

<g transform="translate(0.000000,40.000000) scale(0.100000,-0.100000)"
fill="#000000" stroke="none">
<path d="M63 385 c-54 -23 -65 -60 -61 -197 l3 -120 33 -29 c32 -29 34 -29
152 -29 187 0 200 12 200 197 0 130 -7 151 -60 178 -38 20 -222 20 -267 0z
m268 -44 c22 -17 24 -29 28 -112 2 -51 -2 -109 -8 -130 -16 -51 -46 -62 -171
-57 -137 4 -140 8 -140 164 0 101 2 116 20 134 18 18 33 20 134 20 97 0 117
-3 137 -19z"/>
<path d="M283 314 c-7 -20 17 -37 34 -23 15 13 6 39 -13 39 -8 0 -17 -7 -21
-16z"/>
<path d="M131 274 c-25 -21 -31 -33 -31 -66 0 -50 13 -74 52 -94 85 -44 178
49 134 134 -30 59 -102 71 -155 26z m109 -24 c41 -41 15 -110 -42 -110 -33 0
-68 31 -68 60 0 12 11 32 25 45 29 30 58 32 85 5z"/>
</g>
</svg>
